<svg xmlns="http://www.w3.org/2000/svg" xmlns:xlink="http://www.w3.org/1999/xlink" viewBox="0 0 283 104"><defs><style>.cls-1{fill:url(#linear-gradient);}.cls-2{fill:url(#linear-gradient-2);}.cls-3{fill:#f4c0ff;}</style><linearGradient id="linear-gradient" x1="141.34" y1="-20.23" x2="141.7" y2="141.6" gradientUnits="userSpaceOnUse"><stop offset="0" stop-color="#fcb3ff"/><stop offset="0.13" stop-color="#f589ff"/><stop offset="0.32" stop-color="#ea4aff"/><stop offset="0.75" stop-color="#660078"/></linearGradient><linearGradient id="linear-gradient-2" x1="141" y1="80" x2="141" y2="-78.5" gradientUnits="userSpaceOnUse"><stop offset="0" stop-color="#cb00ff"/><stop offset="0.01" stop-color="#d10fff"/><stop offset="0.02" stop-color="#da25ff"/><stop offset="0.04" stop-color="#e136ff"/><stop offset="0.06" stop-color="#e641ff"/><stop offset="0.09" stop-color="#e948ff"/><stop offset="0.16" stop-color="#ea4aff"/><stop offset="0.21" stop-color="#ef66ff"/><stop offset="0.26" stop-color="#f482ff"/><stop offset="0.33" stop-color="#f798ff"/><stop offset="0.39" stop-color="#faa7ff"/><stop offset="0.47" stop-color="#fcb0ff"/><stop offset="0.58" stop-color="#fcb3ff"/></linearGradient></defs><title>menu-button-purple</title><g id="Layer_2" data-name="Layer 2"><g id="Layer_1-2" data-name="Layer 1"><rect class="cls-1" x="1" y="1" width="281" height="102" rx="11" ry="11"/><path d="M271,2a10,10,0,0,1,10,10V92a10,10,0,0,1-10,10H12A10,10,0,0,1,2,92V12A10,10,0,0,1,12,2H271m0-2H12A12,12,0,0,0,0,12V92a12,12,0,0,0,12,12H271a12,12,0,0,0,12-12V12A12,12,0,0,0,271,0Z"/><rect class="cls-2" x="9" y="11" width="264" height="43" rx="4.5" ry="4.5"/><path class="cls-3" d="M269.17,2H13.83C7.32,2,2,4,2,14v4A12,12,0,0,1,13.83,6H269.17A12,12,0,0,1,281,18V14C281,5,276,2,269.17,2Z"/></g></g></svg>