<svg xmlns="http://www.w3.org/2000/svg" viewBox="0 0 268 824"><defs><style>.cls-1{fill:#4a045b;stroke:#4a045b;}.cls-1,.cls-2,.cls-3{stroke-miterlimit:10;}.cls-1,.cls-2{stroke-width:9px;}.cls-2{fill:#24002d;stroke:#24002d;}.cls-3{fill:#cadcff;stroke:#aecdff;stroke-width:3px;}.cls-4{fill:#88b6ff;}.cls-5{fill:#fff;}.cls-6{fill:#916bee;}.cls-7{fill:#6b4ccc;}</style></defs><title>Asset 2</title><g id="Layer_2" data-name="Layer 2"><g id="Layer_9" data-name="Layer 9"><path class="cls-1" d="M128.79,4.5H171.9c8.26,0,15,11.63,15.1,19.88L186.79,64,141,63.5"/><path class="cls-1" d="M140.5,4.5H97.39c-8.26,0-15,11.63-15.1,19.88L82.5,64l58.5-.5"/><path class="cls-2" d="M128.79,4.5H171.9c8.26,0,15,11.63,15.1,19.88L186.79,64,141,63.5Z"/><path class="cls-3" d="M132.5,822.5h67.26A44.9,44.9,0,0,0,234,806.71h0A136.34,136.34,0,0,0,266.5,718.3V498.12a68.82,68.82,0,0,0-16.75-45L228.5,428.5v-151l38-49V197c0-41.11-9.22-76.15-37-106.46-11-12-30.73-27-45-27H132"/><path class="cls-3" d="M135.5,822.5H68.24a44.9,44.9,0,0,1-34.19-15.79h0A136.34,136.34,0,0,1,1.5,718.3V498.12a68.82,68.82,0,0,1,16.75-45L39.5,428.5v-151l-38-49V197c0-41.11,9.22-76.15,37-106.46,11-12,30.73-27,45-27H136"/><path class="cls-4" d="M234.09,169.61C232.9,189,237,218.14,224,229c-12,10-15.28,39.55-20,49,0,0-.4,136.08-3,149l12.28,18.69a84.53,84.53,0,0,1,13.63,40.05c1.88,24.94,1.62,53.38,1.62,53.38S231,653.57,230,697c-1,42-3,76-43,107-4.65,3.6-22.5,8.93-28,11l-26.5,7.5s41.13,0,67.12,0a45.12,45.12,0,0,0,34.46-16l.51-.6a134.53,134.53,0,0,0,32.12-87.34l-.19-220.5a68.9,68.9,0,0,0-16.77-45L228.5,428.5v-151l38-49V197c0-41.11-11.76-74-37-106.46A73.91,73.91,0,0,0,187,64c21,12,25.53,15.34,37,42C231.57,123.59,234.79,158.12,234.09,169.61Z"/><path class="cls-5" d="M82,76c-27.16,12.63-51.15,52-57.78,74.88a57.23,57.23,0,0,0,6.11,45.69c9.81,16.08,13.53-33,18.67-53.57C57,111,82,76,82,76Z"/><path class="cls-5" d="M16,587c-3-22-3-55,1-78,2.75-15.81,10-46,23.33-55.82C55.5,442,65.22,453.16,47,478,36,493,16,587,16,587Z"/><path class="cls-5" d="M23,770c2,11,12,22,16.3,28.79,9.22,14.53,30.19,16.82,46.67,15.06a16.57,16.57,0,0,0,10-4.78S96,809,96,809c2-7-22.2-11-27-12C55.19,794,23,770,23,770Z"/><rect class="cls-6" x="39.5" y="277.5" width="189" height="150"/><polygon class="cls-7" points="164 278 228 278 228 427 132 427 164 278"/></g></g></svg>